<svg width="760" height="180" viewBox="0 0 760 180" fill="none" xmlns="http://www.w3.org/2000/svg" role="img" aria-label="MemberBook">
  <rect x="20" y="24" width="132" height="132" rx="38" fill="#281D2F"/>
  <path d="M52 115V67c0-7.5 5.5-13 13-13h14c5 0 9.5 2.6 12 7l5 8.5 5-8.5c2.5-4.4 7-7 12-7h14c7.5 0 13 5.5 13 13v48" stroke="#F6EEF8" stroke-width="12" stroke-linecap="round" stroke-linejoin="round"/>
  <path d="M70 84h15M107 84h15" stroke="#B987C8" stroke-width="8" stroke-linecap="round"/>
  <circle cx="76" cy="108" r="8" fill="#77C59E"/>
  <circle cx="116" cy="108" r="8" fill="#D8A448"/>
  <path d="M82 132c9 5 19 5 28 0" stroke="#F6EEF8" stroke-width="8" stroke-linecap="round" opacity=".9"/>
  <text x="184" y="104" fill="#281D2F" font-family="-apple-system, BlinkMacSystemFont, 'Segoe UI', Arial, sans-serif" font-size="66" font-weight="650" letter-spacing="0">MemberBook</text>
  <text x="188" y="137" fill="#6B5E72" font-family="-apple-system, BlinkMacSystemFont, 'Segoe UI', Arial, sans-serif" font-size="20" font-weight="500" letter-spacing="0">members, payments, reminders</text>
</svg>
